<svg width="1440" height="1024" viewBox="0 0 1440 1024" fill="none" xmlns="http://www.w3.org/2000/svg">
<path d="M219.309 227.208C269.24 205.501 331.43 219.254 392.165 228.799C392.73 217.24 399.581 203.172 392.405 195.108C383.687 185.311 384.489 175.017 389.735 164.663C403.151 138.188 383.93 110.016 364.523 86.592C360.149 81.3243 354.621 77.1853 348.387 74.5113C342.154 71.8373 335.392 70.7038 328.65 71.2027L292.699 73.8272C283.951 74.4659 275.603 77.8199 268.771 83.4406C261.939 89.0613 256.949 96.6806 254.47 105.279V105.279C245.886 117.211 241.291 129.111 244.184 140.948C231.326 149.929 229.166 160.769 234.944 172.99C239.843 180.685 239.791 188.175 234.721 195.458C228.062 204.743 222.962 215.096 219.63 226.093L219.309 227.208Z" fill="#2F2E41"/>
<path d="M1405.88 885.232H388.221C379.171 885.232 370.492 881.557 364.093 875.017C357.693 868.476 354.098 859.605 354.098 850.356C722.999 806.536 1084.97 806.536 1440 850.356C1440 859.605 1436.4 868.476 1430.01 875.017C1423.61 881.557 1414.93 885.232 1405.88 885.232Z" fill="#2F2E41"/>
<path d="M1440 852.407L354.098 850.356L479.951 633.92L480.553 632.894V155.895C480.552 150.105 481.668 144.372 483.835 139.023C486.003 133.674 489.18 128.814 493.186 124.72C497.191 120.626 501.946 117.378 507.18 115.163C512.414 112.947 518.023 111.807 523.688 111.808H1264.39C1270.05 111.807 1275.66 112.947 1280.9 115.163C1286.13 117.378 1290.89 120.626 1294.89 124.72C1298.9 128.814 1302.07 133.674 1304.24 139.023C1306.41 144.372 1307.52 150.105 1307.52 155.895V636.177L1440 852.407Z" fill="#3F3D56"/>
<path d="M522.704 142.581C518.979 142.585 515.408 144.099 512.774 146.792C510.14 149.484 508.658 153.134 508.654 156.941V591.864C508.658 595.671 510.14 599.321 512.774 602.014C515.408 604.706 518.979 606.22 522.704 606.225H1271.39C1275.12 606.22 1278.69 604.706 1281.32 602.013C1283.96 599.321 1285.44 595.671 1285.44 591.864V156.941C1285.44 153.134 1283.96 149.484 1281.32 146.792C1278.69 144.1 1275.12 142.585 1271.39 142.581H522.704Z" fill="white"/>
<path d="M525.841 663.667C524.69 663.669 523.564 664.008 522.594 664.642C521.625 665.277 520.854 666.181 520.371 667.249L481.592 753.413C481.169 754.351 480.985 755.382 481.055 756.412C481.125 757.441 481.447 758.437 481.991 759.306C482.536 760.175 483.286 760.89 484.172 761.385C485.058 761.881 486.052 762.14 487.061 762.14H1302.56C1303.59 762.14 1304.6 761.872 1305.5 761.361C1306.39 760.85 1307.15 760.114 1307.68 759.221C1308.22 758.329 1308.53 757.31 1308.58 756.262C1308.62 755.214 1308.41 754.171 1307.95 753.233L1265.8 667.069C1265.3 666.045 1264.53 665.183 1263.58 664.582C1262.63 663.981 1261.53 663.664 1260.41 663.667H525.841Z" fill="#2F2E41"/>
<path d="M894.038 135.4C899.027 135.4 903.071 131.267 903.071 126.169C903.071 121.07 899.027 116.937 894.038 116.937C889.05 116.937 885.006 121.07 885.006 126.169C885.006 131.267 889.05 135.4 894.038 135.4Z" fill="white"/>
<path d="M813.881 778.552C812.558 778.554 811.271 779.001 810.221 779.824C809.17 780.647 808.413 781.8 808.067 783.106L798.34 820.034C798.1 820.946 798.068 821.902 798.247 822.829C798.426 823.756 798.812 824.628 799.374 825.378C799.937 826.128 800.66 826.735 801.489 827.153C802.318 827.571 803.23 827.789 804.154 827.789H989.146C990.106 827.789 991.052 827.554 991.905 827.105C992.758 826.655 993.494 826.003 994.051 825.204C994.607 824.405 994.969 823.481 995.105 822.51C995.241 821.538 995.149 820.548 994.834 819.621L982.328 782.693C981.918 781.485 981.15 780.436 980.13 779.694C979.11 778.952 977.89 778.553 976.638 778.552H813.881Z" fill="#2F2E41"/>
<path d="M1307.52 625.714V633.919H479.95L480.573 632.895V625.714H1307.52Z" fill="#2F2E41"/>
<path d="M1284.44 287.213C1362.04 287.213 1424.95 222.918 1424.95 143.607C1424.95 64.2948 1362.04 0 1284.44 0C1206.84 0 1143.94 64.2948 1143.94 143.607C1143.94 222.918 1206.84 287.213 1284.44 287.213Z" fill="#7F00FF"/>
<path d="M1342.65 206.178H1226.23C1224.1 206.176 1222.06 205.311 1220.56 203.772C1219.05 202.234 1218.21 200.148 1218.2 197.972V126.169C1218.21 123.993 1219.05 121.907 1220.56 120.369C1222.06 118.83 1224.1 117.965 1226.23 117.963H1342.65C1344.78 117.965 1346.82 118.83 1348.32 120.369C1349.83 121.907 1350.68 123.993 1350.68 126.169V197.972C1350.68 200.148 1349.83 202.234 1348.33 203.772C1346.82 205.311 1344.78 206.176 1342.65 206.178ZM1226.23 126.169V197.972H1342.66L1342.65 126.169L1226.23 126.169Z" fill="white"/>
<path d="M1320.57 126.169H1248.31V93.3442C1248.31 69.5694 1263.51 52.3138 1284.44 52.3138C1305.38 52.3138 1320.57 69.5694 1320.57 93.3442L1320.57 126.169ZM1256.34 117.963H1312.54V93.3442C1312.54 74.018 1300.99 60.5199 1284.44 60.5199C1267.9 60.5199 1256.34 74.0181 1256.34 93.3442L1256.34 117.963Z" fill="white"/>
<path d="M1284.44 168.225C1288.88 168.225 1292.47 164.551 1292.47 160.019C1292.47 155.487 1288.88 151.813 1284.44 151.813C1280.01 151.813 1276.41 155.487 1276.41 160.019C1276.41 164.551 1280.01 168.225 1284.44 168.225Z" fill="white"/>
<path d="M478.527 386.652L371.565 444.773L370.211 396.339C405.123 390.382 438.337 380.011 469.049 363.127L480.236 334.879C481.455 331.801 483.436 329.1 485.985 327.04C488.534 324.981 491.563 323.635 494.774 323.134C497.986 322.632 501.27 322.993 504.304 324.181C507.338 325.369 510.018 327.343 512.08 329.909V329.909C515.097 333.663 516.605 338.449 516.299 343.297C515.993 348.146 513.895 352.694 510.43 356.02L478.527 386.652Z" fill="#FFB8B8"/>
<path d="M217.177 722.221C216.397 719.296 216.231 716.235 216.691 713.24C217.151 710.245 218.226 707.383 219.845 704.843L243.341 667.988C248.899 659.27 257.426 652.974 267.269 650.32C277.112 647.666 287.569 648.843 296.611 653.624V653.624C286.736 670.804 288.112 685.875 300.021 698.972C281.534 708.196 264.448 720.101 249.292 734.319C246.525 736.247 243.348 737.471 240.024 737.89C236.701 738.308 233.327 737.909 230.185 736.726C227.043 735.542 224.224 733.608 221.961 731.085C219.698 728.562 218.058 725.523 217.177 722.221V722.221Z" fill="#2F2E41"/>
<path d="M483.398 674.032C479.843 680.088 474.824 685.109 468.823 688.613C462.822 692.116 456.041 693.984 449.131 694.037L293.037 695.246L286.267 655.115L355.318 634.358L297.098 588.691L360.734 512.581L476.315 622.685C483.07 629.12 487.46 637.731 488.749 647.077C490.038 656.423 488.149 665.938 483.398 674.032V674.032Z" fill="#2F2E41"/>
<path d="M268.666 948.487H232.109C199.287 718.536 165.877 487.942 264.604 401.874L381.043 421.248L366.149 522.267L301.16 598.378L268.666 948.487Z" fill="#2F2E41"/>
<path d="M300.801 1000.58C297.939 1001.38 294.944 1001.55 292.014 1001.08C289.083 1000.61 286.283 999.507 283.798 997.852L244.105 992.399C235.576 986.719 229.415 978.004 226.818 967.944C224.22 957.884 225.372 947.196 230.049 937.955C246.858 948.047 261.603 946.639 274.417 934.466C283.471 953.151 298.389 952.012 312.635 967.753C314.522 970.581 315.72 973.829 316.129 977.225C316.539 980.622 316.149 984.07 314.991 987.282C313.833 990.493 311.941 993.375 309.473 995.688C307.004 998.001 304.031 999.677 300.801 1000.58V1000.58Z" fill="#2F2E41"/>
<path d="M355.318 248.269L287.621 231.663C298.864 208.14 299.79 181.967 294.39 154.168L340.424 152.785C341.867 187.353 346.231 219.648 355.318 248.269Z" fill="#FFB8B8"/>
<path d="M373.923 462.914C324.642 497.237 289.822 464.088 263.25 412.945C266.942 381.649 260.964 344.198 249.891 303.505C244.966 285.556 246.805 266.372 255.043 249.741C263.282 233.11 277.321 220.241 294.39 213.673V213.673L352.61 238.582C402.045 279.767 411.775 324.378 393.228 371.43L373.923 462.914Z" fill="#7F00FF"/>
<path d="M232.109 282.865L177.951 311.925L274.081 370.046L287.457 403.768C288.35 406.019 288.785 408.432 288.735 410.86C288.686 413.288 288.153 415.681 287.17 417.892C286.186 420.102 284.772 422.085 283.014 423.719C281.256 425.354 279.191 426.605 276.945 427.396V427.396C274.391 428.296 271.668 428.58 268.99 428.225C266.311 427.87 263.749 426.886 261.504 425.35C259.26 423.814 257.394 421.768 256.052 419.371C254.71 416.975 253.93 414.294 253.771 411.538L252.418 388.036L130.238 346.826C126.122 345.438 122.368 343.11 119.262 340.02C116.156 336.929 113.779 333.156 112.311 328.988V328.988C110.17 322.911 110.062 316.281 112.001 310.134C113.94 303.988 117.819 298.672 123.029 295.019L221.278 226.128L232.109 282.865Z" fill="#FFB8B8"/>
<path d="M286.267 288.4C263.68 278.283 243.141 289.273 217.216 298.087L213.154 224.744C238.896 210.721 263.44 206.94 286.267 217.825L286.267 288.4Z" fill="#7F00FF"/>
<path d="M313.286 189.114C337.157 189.114 356.508 169.336 356.508 144.938C356.508 120.54 337.157 100.762 313.286 100.762C289.415 100.762 270.064 120.54 270.064 144.938C270.064 169.336 289.415 189.114 313.286 189.114Z" fill="#FFB8B8"/>
<path d="M364.994 139.364C322.2 143.648 289.592 136.494 268.752 116.127V99.7244H361.362L364.994 139.364Z" fill="#2F2E41"/>
</svg>
